<mxfile host="app.diagrams.net" modified="2022-01-26T11:25:29.687Z" agent="5.0 (Windows NT 10.0; Win64; x64) AppleWebKit/537.36 (KHTML, like Gecko) Chrome/96.0.4664.110 YaBrowser/22.1.0.2517 Yowser/2.5 Safari/537.36" etag="f2kDBmJ5o6OucRFojQtk" version="16.4.7" type="github">
  <diagram name="Page-1" id="9c096ad6-e400-ecc8-3e38-643d2caac077">
    <mxGraphModel dx="1185" dy="651" grid="1" gridSize="10" guides="1" tooltips="1" connect="1" arrows="1" fold="1" page="1" pageScale="1.5" pageWidth="1169" pageHeight="826" background="none" math="0" shadow="0">
      <root>
        <mxCell id="0" style=";html=1;" />
        <mxCell id="1" style=";html=1;" parent="0" />
        <mxCell id="yss0Wa9vCx-BXlRqQjeI-57" style="edgeStyle=orthogonalEdgeStyle;rounded=0;orthogonalLoop=1;jettySize=auto;html=1;entryX=0;entryY=0.5;entryDx=0;entryDy=0;fontSize=12;strokeColor=#000000;" edge="1" parent="1" source="yss0Wa9vCx-BXlRqQjeI-54" target="yss0Wa9vCx-BXlRqQjeI-22">
          <mxGeometry relative="1" as="geometry" />
        </mxCell>
        <mxCell id="yss0Wa9vCx-BXlRqQjeI-62" style="edgeStyle=orthogonalEdgeStyle;rounded=0;orthogonalLoop=1;jettySize=auto;html=1;entryX=1.104;entryY=0.872;entryDx=0;entryDy=0;entryPerimeter=0;fontSize=18;strokeColor=#000000;" edge="1" parent="1" source="yss0Wa9vCx-BXlRqQjeI-54" target="yss0Wa9vCx-BXlRqQjeI-11">
          <mxGeometry relative="1" as="geometry">
            <Array as="points">
              <mxPoint x="720" y="682" />
              <mxPoint x="720" y="682" />
            </Array>
          </mxGeometry>
        </mxCell>
        <mxCell id="yss0Wa9vCx-BXlRqQjeI-65" value="&amp;nbsp;Решение&amp;nbsp;" style="edgeLabel;html=1;align=center;verticalAlign=middle;resizable=0;points=[];fontSize=18;labelBorderColor=default;" vertex="1" connectable="0" parent="yss0Wa9vCx-BXlRqQjeI-62">
          <mxGeometry x="0.1123" y="3" relative="1" as="geometry">
            <mxPoint as="offset" />
          </mxGeometry>
        </mxCell>
        <mxCell id="yss0Wa9vCx-BXlRqQjeI-54" value="" style="whiteSpace=wrap;html=1;" vertex="1" parent="1">
          <mxGeometry x="760" y="550" width="160" height="220" as="geometry" />
        </mxCell>
        <mxCell id="yss0Wa9vCx-BXlRqQjeI-56" style="edgeStyle=orthogonalEdgeStyle;rounded=0;orthogonalLoop=1;jettySize=auto;html=1;entryX=0;entryY=0.5;entryDx=0;entryDy=0;fontSize=12;strokeColor=#000000;" edge="1" parent="1" source="yss0Wa9vCx-BXlRqQjeI-11" target="yss0Wa9vCx-BXlRqQjeI-54">
          <mxGeometry relative="1" as="geometry" />
        </mxCell>
        <mxCell id="yss0Wa9vCx-BXlRqQjeI-11" value="&lt;br&gt;&lt;br&gt;&lt;br&gt;&lt;br&gt;&lt;br&gt;&lt;br&gt;Клиент" style="shape=actor;whiteSpace=wrap;html=1;" vertex="1" parent="1">
          <mxGeometry x="560" y="630" width="40" height="60" as="geometry" />
        </mxCell>
        <mxCell id="yss0Wa9vCx-BXlRqQjeI-12" value="&lt;br&gt;&lt;br&gt;&lt;br&gt;&lt;br&gt;Заявление" style="shape=note;whiteSpace=wrap;html=1;backgroundOutline=1;darkOpacity=0.05;size=12;" vertex="1" parent="1">
          <mxGeometry x="660" y="600" width="30" height="40" as="geometry" />
        </mxCell>
        <mxCell id="yss0Wa9vCx-BXlRqQjeI-13" value="Сайт" style="whiteSpace=wrap;html=1;" vertex="1" parent="1">
          <mxGeometry x="780" y="700" width="120" height="60" as="geometry" />
        </mxCell>
        <mxCell id="yss0Wa9vCx-BXlRqQjeI-15" value="Мобильное приложение" style="whiteSpace=wrap;html=1;" vertex="1" parent="1">
          <mxGeometry x="780" y="630" width="120" height="60" as="geometry" />
        </mxCell>
        <mxCell id="yss0Wa9vCx-BXlRqQjeI-17" value="Консультант в отделении банка" style="whiteSpace=wrap;html=1;" vertex="1" parent="1">
          <mxGeometry x="780" y="560" width="120" height="60" as="geometry" />
        </mxCell>
        <mxCell id="yss0Wa9vCx-BXlRqQjeI-42" value="" style="edgeStyle=orthogonalEdgeStyle;rounded=0;orthogonalLoop=1;jettySize=auto;html=1;fontSize=9;fillColor=#f8cecc;strokeColor=#000000;" edge="1" parent="1" source="yss0Wa9vCx-BXlRqQjeI-22" target="yss0Wa9vCx-BXlRqQjeI-41">
          <mxGeometry relative="1" as="geometry" />
        </mxCell>
        <mxCell id="yss0Wa9vCx-BXlRqQjeI-43" value="&lt;font style=&quot;font-size: 12px&quot;&gt;Данные из источников&lt;/font&gt;" style="edgeLabel;html=1;align=center;verticalAlign=middle;resizable=0;points=[];fontSize=9;labelBorderColor=default;" vertex="1" connectable="0" parent="yss0Wa9vCx-BXlRqQjeI-42">
          <mxGeometry x="-0.0934" y="1" relative="1" as="geometry">
            <mxPoint as="offset" />
          </mxGeometry>
        </mxCell>
        <mxCell id="yss0Wa9vCx-BXlRqQjeI-22" value="&amp;nbsp;Блок принятия решений" style="whiteSpace=wrap;html=1;" vertex="1" parent="1">
          <mxGeometry x="1017" y="630" width="120" height="60" as="geometry" />
        </mxCell>
        <mxCell id="yss0Wa9vCx-BXlRqQjeI-26" value="" style="endArrow=classic;startArrow=classic;html=1;rounded=0;exitX=0.25;exitY=0;exitDx=0;exitDy=0;entryX=0.5;entryY=1;entryDx=0;entryDy=0;" edge="1" parent="1" source="yss0Wa9vCx-BXlRqQjeI-22" target="yss0Wa9vCx-BXlRqQjeI-35">
          <mxGeometry width="50" height="50" relative="1" as="geometry">
            <mxPoint x="1210" y="740" as="sourcePoint" />
            <mxPoint x="950" y="460" as="targetPoint" />
          </mxGeometry>
        </mxCell>
        <mxCell id="yss0Wa9vCx-BXlRqQjeI-29" value="" style="endArrow=classic;startArrow=classic;html=1;rounded=0;exitX=0.5;exitY=0;exitDx=0;exitDy=0;entryX=0.5;entryY=1;entryDx=0;entryDy=0;" edge="1" parent="1" source="yss0Wa9vCx-BXlRqQjeI-22" target="yss0Wa9vCx-BXlRqQjeI-36">
          <mxGeometry width="50" height="50" relative="1" as="geometry">
            <mxPoint x="1147" y="640" as="sourcePoint" />
            <mxPoint x="1073.5" y="460" as="targetPoint" />
          </mxGeometry>
        </mxCell>
        <mxCell id="yss0Wa9vCx-BXlRqQjeI-31" value="" style="endArrow=classic;startArrow=classic;html=1;rounded=0;exitX=0.75;exitY=0;exitDx=0;exitDy=0;entryX=0.5;entryY=1;entryDx=0;entryDy=0;" edge="1" parent="1" source="yss0Wa9vCx-BXlRqQjeI-22" target="yss0Wa9vCx-BXlRqQjeI-34">
          <mxGeometry width="50" height="50" relative="1" as="geometry">
            <mxPoint x="1087" y="640" as="sourcePoint" />
            <mxPoint x="1200" y="460" as="targetPoint" />
          </mxGeometry>
        </mxCell>
        <mxCell id="yss0Wa9vCx-BXlRqQjeI-34" value="&lt;span&gt;Данные из открытых источников&lt;/span&gt;" style="shape=datastore;whiteSpace=wrap;html=1;" vertex="1" parent="1">
          <mxGeometry x="1140" y="370" width="90" height="90" as="geometry" />
        </mxCell>
        <mxCell id="yss0Wa9vCx-BXlRqQjeI-35" value="&lt;span&gt;Автоматизированная банковская система&lt;/span&gt;" style="shape=datastore;whiteSpace=wrap;html=1;" vertex="1" parent="1">
          <mxGeometry x="877" y="370" width="130" height="90" as="geometry" />
        </mxCell>
        <mxCell id="yss0Wa9vCx-BXlRqQjeI-36" value="Данные от партнеров" style="shape=datastore;whiteSpace=wrap;html=1;" vertex="1" parent="1">
          <mxGeometry x="1032" y="370" width="90" height="90" as="geometry" />
        </mxCell>
        <mxCell id="yss0Wa9vCx-BXlRqQjeI-39" value="&lt;span&gt;Бюро кредитных историй&lt;/span&gt;" style="shape=datastore;whiteSpace=wrap;html=1;" vertex="1" parent="1">
          <mxGeometry x="1250" y="370" width="90" height="90" as="geometry" />
        </mxCell>
        <mxCell id="yss0Wa9vCx-BXlRqQjeI-40" value="" style="endArrow=classic;startArrow=classic;html=1;rounded=0;entryX=0.456;entryY=1.01;entryDx=0;entryDy=0;exitX=1;exitY=0;exitDx=0;exitDy=0;entryPerimeter=0;" edge="1" parent="1" source="yss0Wa9vCx-BXlRqQjeI-22" target="yss0Wa9vCx-BXlRqQjeI-39">
          <mxGeometry width="50" height="50" relative="1" as="geometry">
            <mxPoint x="1240" y="650" as="sourcePoint" />
            <mxPoint x="1318" y="480" as="targetPoint" />
          </mxGeometry>
        </mxCell>
        <mxCell id="yss0Wa9vCx-BXlRqQjeI-58" style="edgeStyle=orthogonalEdgeStyle;rounded=0;orthogonalLoop=1;jettySize=auto;html=1;fontSize=12;strokeColor=#000000;entryX=0.5;entryY=1;entryDx=0;entryDy=0;exitX=0.25;exitY=1;exitDx=0;exitDy=0;" edge="1" parent="1" source="yss0Wa9vCx-BXlRqQjeI-22" target="yss0Wa9vCx-BXlRqQjeI-54">
          <mxGeometry relative="1" as="geometry">
            <mxPoint x="1390" y="850" as="targetPoint" />
            <Array as="points">
              <mxPoint x="1047" y="850" />
              <mxPoint x="840" y="850" />
            </Array>
          </mxGeometry>
        </mxCell>
        <mxCell id="yss0Wa9vCx-BXlRqQjeI-59" value="&lt;font style=&quot;font-size: 18px&quot;&gt;&amp;nbsp;Решение&amp;nbsp;&lt;/font&gt;" style="edgeLabel;html=1;align=center;verticalAlign=middle;resizable=0;points=[];fontSize=12;labelBorderColor=default;" vertex="1" connectable="0" parent="yss0Wa9vCx-BXlRqQjeI-58">
          <mxGeometry x="0.0711" y="-1" relative="1" as="geometry">
            <mxPoint x="-64" as="offset" />
          </mxGeometry>
        </mxCell>
        <mxCell id="yss0Wa9vCx-BXlRqQjeI-63" style="edgeStyle=orthogonalEdgeStyle;rounded=0;orthogonalLoop=1;jettySize=auto;html=1;exitX=0.5;exitY=1;exitDx=0;exitDy=0;entryX=0.657;entryY=1.067;entryDx=0;entryDy=0;entryPerimeter=0;fontSize=18;strokeColor=#000000;" edge="1" parent="1" source="yss0Wa9vCx-BXlRqQjeI-41" target="yss0Wa9vCx-BXlRqQjeI-22">
          <mxGeometry relative="1" as="geometry">
            <Array as="points">
              <mxPoint x="1420" y="850" />
              <mxPoint x="1096" y="850" />
            </Array>
          </mxGeometry>
        </mxCell>
        <mxCell id="yss0Wa9vCx-BXlRqQjeI-64" value="&amp;nbsp;Оценка&amp;nbsp;" style="edgeLabel;html=1;align=center;verticalAlign=middle;resizable=0;points=[];fontSize=18;labelBorderColor=default;" vertex="1" connectable="0" parent="yss0Wa9vCx-BXlRqQjeI-63">
          <mxGeometry x="-0.0341" y="2" relative="1" as="geometry">
            <mxPoint as="offset" />
          </mxGeometry>
        </mxCell>
        <mxCell id="yss0Wa9vCx-BXlRqQjeI-41" value="Аналитический блок" style="whiteSpace=wrap;html=1;" vertex="1" parent="1">
          <mxGeometry x="1370" y="630" width="100" height="60" as="geometry" />
        </mxCell>
        <mxCell id="yss0Wa9vCx-BXlRqQjeI-47" value="Модель машинного обучения" style="whiteSpace=wrap;html=1;" vertex="1" parent="1">
          <mxGeometry x="1290" y="510" width="120" height="60" as="geometry" />
        </mxCell>
        <mxCell id="yss0Wa9vCx-BXlRqQjeI-49" value="" style="endArrow=classic;startArrow=classic;html=1;rounded=0;fontSize=12;strokeColor=#000000;entryX=0.5;entryY=1;entryDx=0;entryDy=0;exitX=0.25;exitY=0;exitDx=0;exitDy=0;" edge="1" parent="1" source="yss0Wa9vCx-BXlRqQjeI-41" target="yss0Wa9vCx-BXlRqQjeI-47">
          <mxGeometry width="50" height="50" relative="1" as="geometry">
            <mxPoint x="1340" y="660" as="sourcePoint" />
            <mxPoint x="1390" y="610" as="targetPoint" />
          </mxGeometry>
        </mxCell>
        <mxCell id="yss0Wa9vCx-BXlRqQjeI-51" value="Ручная оценка рисков" style="whiteSpace=wrap;html=1;" vertex="1" parent="1">
          <mxGeometry x="1440" y="510" width="120" height="60" as="geometry" />
        </mxCell>
        <mxCell id="yss0Wa9vCx-BXlRqQjeI-53" value="" style="endArrow=classic;startArrow=classic;html=1;rounded=0;fontSize=12;strokeColor=#000000;exitX=0.75;exitY=0;exitDx=0;exitDy=0;entryX=0.5;entryY=1;entryDx=0;entryDy=0;" edge="1" parent="1" source="yss0Wa9vCx-BXlRqQjeI-41" target="yss0Wa9vCx-BXlRqQjeI-51">
          <mxGeometry width="50" height="50" relative="1" as="geometry">
            <mxPoint x="1340" y="650" as="sourcePoint" />
            <mxPoint x="1390" y="600" as="targetPoint" />
          </mxGeometry>
        </mxCell>
      </root>
    </mxGraphModel>
  </diagram>
</mxfile>
